<svg height="512pt" viewBox="0 0 512 512" width="512pt" xmlns="http://www.w3.org/2000/svg"><path d="m510.5 183.800781c-2.703125-5.703125-8.703125-9.300781-15.300781-8.402343l-77.101563 8.699218 1.5-49.796875c0-5.699219-2.996094-11.101562-8.398437-13.800781-5.101563-2.402344-11.398438-1.800781-16.199219 1.800781l-50.699219 41.097657 17.398438-86.398438c1.203125-5.699219-.898438-11.402344-5.699219-15-4.5-3.300781-10.5-3.902344-15.597656-1.5l-44.703125 22.199219-24.6875-73.398438c-2.097657-6-9.097657-9.300781-15.097657-9.300781s-11 3.300781-13.101562 9.300781l-24.597656 73.398438-44.703125-22.199219c-5.097657-2.402344-11.097657-1.800781-15.597657 1.5-4.800781 3.597656-6.902343 9.300781-5.699218 15l17.398437 86.398438-50.699219-41.097657c-4.800781-3.601562-10.800781-4.203125-16.199218-1.800781-5.402344 2.699219-8.402344 8.101562-8.402344 13.800781l1.5 49.796875-79.097656-8.699218c-6.601563-.898438-12.601563 2.699218-15.300782 8.402343-2.699218 6-1.4999995 12.898438 3.300782 17.398438l58.101562 53.402343-39.003906 30.898438c-4.5 3.601562-6.597656 9.601562-5.097656 15.300781s6 9.898438 11.699218 11.097657l96.597657 18.601562-33.597657 66.902344c-2.402343 5.097656-1.800781 11.097656 1.5 15.597656 3.597657 4.800781 9.300782 6.902344 15 5.699219l146-29.398438 148.085938 29.398438c.898438.300781 2.097656.300781 3 .300781 4.5 0 9-2.101562 12-6 3.300781-4.5 3.898438-10.5 1.5-15.597656l-33.601562-66.902344 96.601562-18.601562c5.699219-1.199219 10.199219-5.398438 11.699219-11.097657 1.496093-5.699219-.601563-11.699219-5.101563-15.300781l-39-30.898438 56.101563-53.402343c4.800781-4.5 6-11.398438 3.300781-17.398438zm0 0" fill="#ec5569"/><path d="m507.199219 201.199219-56.101563 53.402343 39 30.898438c4.5 3.601562 6.601563 9.601562 5.101563 15.300781s-6 9.898438-11.699219 11.097657l-96.601562 18.601562 33.601562 66.902344c2.398438 5.097656 1.800781 11.097656-1.5 15.597656-3 3.898438-7.5 6-12 6-.902344 0-2.101562 0-3-.300781l-148.085938-29.398438v-389.300781c6 0 13 3.300781 15.097657 9.300781l24.6875 73.398438 44.699219-22.199219c5.101562-2.402344 11.101562-1.800781 15.601562 1.5 4.800781 3.597656 6.898438 9.300781 5.699219 15l-17.402344 86.398438 50.703125-41.097657c4.800781-3.601562 11.097656-4.203125 16.199219-1.800781 5.398437 2.699219 8.398437 8.101562 8.398437 13.800781l-1.5 49.796875 77.101563-8.699218c6.597656-.898438 12.597656 2.699218 15.300781 8.402343 2.699219 6 1.5 12.898438-3.300781 17.398438zm0 0" fill="#e63950"/><path d="m355.3125 266.597656-83.398438 55.503906v174.898438c0 8.402344-7.601562 15-16 15-8.402343 0-14-6.597656-14-15v-174.898438l-83.402343-55.5c-6.898438-4.800781-8.699219-14.101562-4.199219-21 4.800781-6.902343 14.101562-8.699218 21-4.199218l66.601562 44.699218v-62.101562c0-8.402344 5.597657-15 14-15 8.398438 0 16 6.597656 16 15v62.101562l66.597657-44.703124c6.902343-4.5 16.199219-2.699219 21 4.199218 4.5 6.902344 2.703125 16.203125-4.199219 21zm0 0" fill="#cc2e43"/><path d="m355.3125 266.597656-83.398438 55.503906v174.898438c0 8.402344-7.601562 15-16 15v-303c8.398438 0 16 6.597656 16 15v62.101562l66.597657-44.703124c6.902343-4.5 16.203125-2.699219 21 4.199218 4.5 6.902344 2.703125 16.203125-4.199219 21zm0 0" fill="#ae2538"/></svg>